<?xml version="1.0" ?><!-- Uploaded to: SVG Repo, www.svgrepo.com, Generator: SVG Repo Mixer Tools -->
<svg fill="#ffffff" width="800px" height="800px" viewBox="0 0 32 32" xmlns="http://www.w3.org/2000/svg" id="Layer_1" data-name="Layer 1"><path d="M28.38,10.4c-.28-.28-.72-.29-1.02-.04l-2.37,2.01c-.22-.09-.48-.07-.68,.06l-1.99,1.29c-.14-.17-.34-.28-.57-.28H10.27c-.24,0-.44,.12-.58,.29l-2.01-1.31c-.2-.13-.45-.15-.67-.06l-2.37-2.01c-.3-.25-.74-.24-1.02,.04l-2.15,2.14c-.26,.26-.29,.67-.08,.97l4.24,5.96s.03,.02,.04,.03c.06,.08,.14,.15,.23,.2l2.66,1.39c0,.17,.05,.34,.17,.47,.14,.16,.35,.26,.56,.26h13.42c.22,0,.42-.09,.56-.26,.12-.13,.16-.3,.17-.47l2.65-1.39c.1-.05,.18-.13,.24-.21,0,0,.02-.01,.02-.02l4.24-5.96c.21-.3,.18-.71-.08-.97l-2.15-2.14Zm-7.27,4.55l.58,4.14,.17,1.22H10.16l.75-5.26s0,0,0,0v-.1h10.19ZM4.19,11.95l2.19,1.86-.18,1.04-.39,2.27-2.83-3.97,1.21-1.2Zm3.46,3.32l.16-.95,1.54,1-.45,3.2-.14,.98-1.68-.88,.57-3.35Zm15.6,4.23l-.32-2.26-.27-1.94,1.51-.98,.74,4.31-1.66,.87Zm2.93-2.37l-.57-3.31,2.19-1.86,1.21,1.2-2.83,3.97Z"/></svg>